<svg width="124" height="21" viewBox="0 0 124 21" fill="none" xmlns="http://www.w3.org/2000/svg">
<path d="M121.464 0.58429H124V3.07675H121.464V0.58429ZM121.464 4.8323H124V16.2759H121.464V4.8323Z" fill="#05361E"/>
<path d="M120.09 16.2759L117.619 16.2976C117.424 16.0808 117.272 15.5173 117.272 14.7371C116.535 15.9942 114.888 16.5577 113.458 16.5577C111.399 16.5577 109.643 15.2573 109.643 13.1332C109.643 10.6625 111.421 9.75218 114.477 9.42708C116.687 9.18867 117.251 8.82022 117.251 8.12666C117.251 7.17303 116.601 6.52282 115.018 6.52282C113.891 6.52282 112.808 7.10801 112.418 8.36507L110.077 7.90993C110.575 5.82927 112.526 4.5722 115.083 4.5722C118.486 4.5722 119.787 6.1327 119.787 8.14834V13.8918C119.787 15.1489 119.808 15.7774 120.09 16.2759ZM117.251 11.7895V10.4891C116.882 10.8575 115.669 11.0309 114.455 11.1826C113.306 11.356 112.244 11.8979 112.244 13.0899C112.244 14.1086 112.938 14.6504 114.065 14.6504C115.452 14.6504 117.251 13.8485 117.251 11.7895Z" fill="#05361E"/>
<path d="M105.232 13.35H108.223V16.276H105.232V13.35Z" fill="#05361E"/>
<path d="M103.521 7.86658L101.201 8.27838C100.898 6.99964 99.8577 6.39278 98.6874 6.39278C97.452 6.39278 96.6067 6.93462 96.6067 7.9316C96.6067 8.86356 97.5387 9.10197 98.7307 9.31871L99.8794 9.4921C101.873 9.83887 103.802 10.4457 103.802 12.9382C103.802 15.3656 101.635 16.5577 98.7957 16.5577C95.8264 16.5577 93.9192 15.1055 93.5291 12.9599L95.8698 12.5481C96.2166 14.0652 97.3002 14.7371 98.8391 14.7371C100.226 14.7371 101.201 14.1086 101.201 13.0249C101.201 12.0929 100.248 11.7678 98.9041 11.5294L97.712 11.3343C95.9131 11.0309 94.0275 10.4024 94.0275 7.99662C94.0275 5.95931 96.0215 4.5722 98.6874 4.5722C101.267 4.5722 103.217 6.046 103.521 7.86658Z" fill="#05361E"/>
<path d="M88.751 4.5722C90.7233 4.5722 92.5872 5.8076 92.5872 8.71185V16.2759H90.0514V9.42708C90.0514 7.38976 89.2495 6.65286 87.8624 6.65286C86.6053 6.65286 85.4133 7.80156 85.4133 10.0123V16.2759H82.8775V9.42708C82.8775 7.38976 82.0756 6.65286 80.6885 6.65286C79.4097 6.65286 78.2177 7.80156 78.2177 10.0123V16.2759H75.6819V4.83229H78.1093V6.34943H78.196C79.0413 5.13572 80.2116 4.5722 81.5771 4.5722C82.9208 4.5722 84.2212 5.13572 84.8931 6.43613C85.9118 5.26576 87.0171 4.5722 88.751 4.5722Z" fill="#05361E"/>
<path d="M68.6323 4.5722C72.0784 4.5722 74.2891 6.93462 74.2891 10.5541C74.2891 14.1953 72.0784 16.5577 68.6323 16.5577C65.1646 16.5577 62.9539 14.1953 62.9539 10.5541C62.9539 6.93462 65.1646 4.5722 68.6323 4.5722ZM68.6323 14.5637C70.5179 14.5637 71.71 13.0899 71.71 10.5541C71.71 8.0183 70.5179 6.56617 68.6323 6.56617C66.7251 6.56617 65.533 8.0183 65.533 10.5541C65.533 13.0899 66.7251 14.5637 68.6323 14.5637Z" fill="#05361E"/>
<path d="M61.174 14.217C61.4558 14.217 61.9109 14.217 62.236 14.1953V16.2976C61.9759 16.3193 61.0873 16.341 60.4588 16.341C58.3131 16.341 57.3378 15.8425 57.3378 13.7185V6.6529H55.4739V4.83232H57.3378V1.60297H59.8736V4.83232H62.3444V6.6529H59.8736V13.0466C59.8736 14.1086 60.2854 14.217 61.174 14.217Z" fill="#05361E"/>
<path d="M50.0447 16.5577C48.4408 16.5577 47.2488 15.9725 46.5986 14.9755H46.5119V20.2638H43.9761V4.83229H46.4035V6.30609H46.4902C47.1404 5.15739 48.4408 4.5722 50.023 4.5722C53.0139 4.5722 55.1596 6.93462 55.1596 10.5541C55.1596 14.1953 53.0139 16.5577 50.0447 16.5577ZM49.4595 6.56617C47.5739 6.56617 46.3602 8.03997 46.3602 10.5541C46.3602 13.0899 47.5739 14.542 49.4595 14.542C51.3667 14.542 52.5805 13.0899 52.5805 10.5541C52.5805 8.03997 51.3667 6.56617 49.4595 6.56617Z" fill="#05361E"/>
<path d="M38.483 4.5722C40.4552 4.5722 42.3192 5.8076 42.3192 8.71185V16.2759H39.7834V9.42708C39.7834 7.38976 38.9814 6.65286 37.5943 6.65286C36.3373 6.65286 35.1452 7.80156 35.1452 10.0123V16.2759H32.6094V9.42708C32.6094 7.38976 31.8075 6.65286 30.4204 6.65286C29.1417 6.65286 27.9496 7.80156 27.9496 10.0123V16.2759H25.4138V4.83229H27.8413V6.34943H27.9279C28.7732 5.13572 29.9436 4.5722 31.309 4.5722C32.6528 4.5722 33.9532 5.13572 34.6251 6.43613C35.6437 5.26576 36.7491 4.5722 38.483 4.5722Z" fill="#05361E"/>
<path d="M24.5606 4.83231L20.2909 16.2759C18.9254 20.0254 17.625 20.5456 15.8045 20.5456C15.1326 20.5456 14.6341 20.5023 14.2873 20.4589V18.2916C14.504 18.3349 14.7858 18.3783 15.436 18.3783C16.5847 18.3783 16.9965 17.9014 17.56 16.536L17.7117 16.1459L13.1169 4.83231H15.8695L18.9254 13.1766H19.0121L21.8514 4.83231H24.5606Z" fill="#05361E"/>
<path d="M12.549 5.11412L9.83978 5.30918C9.47133 3.51028 8.14925 2.59999 6.26365 2.59999C4.4214 2.59999 3.2727 3.53196 3.2727 4.83237C3.2727 6.06776 4.29136 6.45788 5.61344 6.78298L8.21427 7.38984C10.5984 7.97503 12.9391 8.58189 12.9391 12.0497C12.9391 15.1273 10.1649 16.6444 6.78381 16.6444C3.01262 16.6444 0.498491 14.8455 0 11.5078L2.68752 11.2477C2.99095 13.6752 4.78985 14.4988 6.82716 14.4988C8.79945 14.4988 10.1649 13.6101 10.1649 12.1147C10.1649 10.5975 9.01619 10.2291 7.41235 9.83895L4.70316 9.16707C2.64417 8.64691 0.520165 7.86666 0.520165 4.91906C0.520165 2.14485 3.03429 0.454315 6.307 0.454315C9.75309 0.454315 11.8337 2.14485 12.549 5.11412Z" fill="#05361E"/>
</svg>
